<svg width="82" height="79" xmlns="http://www.w3.org/2000/svg" xmlns:xlink="http://www.w3.org/1999/xlink" xml:space="preserve" overflow="hidden"><defs><clipPath id="clip0"><rect x="1049" y="144" width="82" height="79"/></clipPath><clipPath id="clip1"><rect x="1049" y="144" width="83" height="67"/></clipPath><clipPath id="clip2"><rect x="1078" y="164" width="24" height="59"/></clipPath></defs><g clip-path="url(#clip0)" transform="translate(-1049 -144)"><g clip-path="url(#clip1)"><path d="M81.5018 52.6792C77.8224 48.7925 73.3087 45.4405 68.5796 42.9412 71.6907 38.5005 73.0891 33.0776 73.7221 27.7537 74.0741 24.7919 74.2317 21.7284 73.9854 18.7482 73.9656 18.5061 73.8019 18.3185 73.5489 18.3117 71.3415 18.251 69.1144 18.4256 66.9227 18.6664 62.5325 19.1486 58.1724 20.1077 54.0905 21.8151 52.7658 16.3963 50.1049 11.371 46.9562 6.79875 45.3532 4.47065 43.6104 2.17257 41.652 0.126875 41.4835-0.0491131 41.2052-0.032742 41.0346 0.126875 38.8996 2.12482 37.0169 4.43314 35.2782 6.77556 31.918 11.3015 29.1302 16.4474 27.9706 22.0027 23.8942 20.2271 19.532 19.2489 15.1261 18.7155 12.7994 18.4331 10.4229 18.2469 8.07637 18.3117 7.8233 18.3185 7.65959 18.5061 7.63981 18.7482 7.39902 21.663 7.56 24.6459 7.87992 27.5456 8.47473 32.9317 9.90174 38.4542 13.0463 42.9412 8.31716 45.4405 3.80285 48.7925 0.124147 52.6792-0.0497951 52.8627-0.032742 53.111 0.124147 53.2965 1.95361 55.4568 4.09889 57.3941 6.29398 59.1703 10.502 62.5755 15.3758 65.5011 20.7523 66.5284 24.2237 67.1921 27.8457 66.9056 31.1008 65.493 35.1431 63.7392 38.2966 60.5639 40.8123 57.0121 44.7065 62.4868 50.1881 66.8088 57.1772 66.877 62.8006 66.9322 68.1683 64.3272 72.6805 61.1717 75.8817 58.9329 78.969 56.287 81.5018 53.2965 81.6587 53.111 81.6757 52.8627 81.5018 52.6792" fill="#ED731F" transform="matrix(1.00464 0 0 1 1049 144)"/></g><g clip-path="url(#clip2)"><path d="M50.3573 41.8355C47.4664 44.7256 44.5762 47.6158 41.6861 50.506 41.6861 47.3423 41.6861 44.1786 41.6861 41.0149 44.403 38.298 47.1199 35.5811 49.8368 32.8641 50.6342 32.0674 49.3996 30.8321 48.6021 31.6295 46.2966 33.9344 43.9917 36.24 41.6861 38.5456 41.6861 34.4399 41.6861 30.3348 41.6861 26.2291 41.6861 24.5108 41.6861 22.7926 41.6861 21.0743 41.6861 19.9481 39.9398 19.9481 39.9398 21.0743 39.9398 26.8983 39.9398 32.7216 39.9398 38.5449 37.6342 36.24 35.3293 33.9344 33.0238 31.6295 32.227 30.8321 30.9924 32.0674 31.7891 32.8641 34.506 35.5811 37.2229 38.298 39.9398 41.0149 39.9398 41.2659 39.9398 41.5169 39.9398 41.7686 39.9398 44.6806 39.9398 47.5933 39.9398 50.506 37.0497 47.6158 34.1595 44.7256 31.2693 41.8355 30.4726 41.0381 29.2373 42.2734 30.0347 43.0701 33.3362 46.3716 36.6383 49.6738 39.9398 52.9753 39.9398 59.6478 39.9398 66.3197 39.9398 72.9922 39.9398 74.7105 39.9398 76.4288 39.9398 78.1471 39.9398 79.2726 41.6861 79.2726 41.6861 78.1471 41.6861 71.2487 41.6861 64.3511 41.6861 57.4527 41.6861 55.9609 41.6861 54.4678 41.6861 52.9753 44.9882 49.6738 48.2897 46.3716 51.5919 43.0701 52.3886 42.2734 51.154 41.0381 50.3573 41.8355" fill="#F8BE64" transform="matrix(1.00464 0 0 1 1049 144)"/></g></g></svg>